<svg xmlns="http://www.w3.org/2000/svg" width="320" height="240" viewBox="0 0 320 240" fill="none">
  <path d="M48 216V104C48 50 91 20 160 20s112 30 112 84v112H48Z" fill="#F4F5F2"/>
  <ellipse cx="160" cy="207" rx="104" ry="13" fill="#E8EBE5"/>
  <path d="M88 75h144v126H88z" fill="#FFFFFF" stroke="#0D1B2A" stroke-width="5" stroke-linejoin="round"/>
  <path d="M103 58h114l15 17H88l15-17Z" fill="#6B8C52" stroke="#0D1B2A" stroke-width="5" stroke-linejoin="round"/>
  <path d="M108 94h24v25h-24zM148 94h24v25h-24zM188 94h24v25h-24zM108 136h24v25h-24zM188 136h24v25h-24z" fill="#E8EBE5" stroke="#0D1B2A" stroke-width="5" stroke-linejoin="round"/>
  <path d="M146 201v-61h32v61" fill="#4A5E3A" stroke="#0D1B2A" stroke-width="5" stroke-linejoin="round"/>
  <path d="m178 140 22 10v51h-22v-61Z" fill="#6B8C52" stroke="#0D1B2A" stroke-width="5" stroke-linejoin="round"/>
  <circle cx="190" cy="173" r="3.5" fill="#C9A84C"/>
  <circle cx="236" cy="68" r="15" fill="#FFFFFF" stroke="#0D1B2A" stroke-width="5"/>
  <path d="M225 79 207 97m0 0-9-9m9 9 8 8" stroke="#C9A84C" stroke-width="5" stroke-linecap="round" stroke-linejoin="round"/>
  <path d="M236 62a6 6 0 1 1 0 12 6 6 0 0 1 0-12Z" fill="#6B8C52"/>
  <path d="M63 177c0-14 11-25 25-25" stroke="#6B8C52" stroke-width="5" stroke-linecap="round"/>
  <path d="m61 163 2 14 14-2" stroke="#6B8C52" stroke-width="5" stroke-linecap="round" stroke-linejoin="round"/>
</svg>
